<svg width="165" height="175" viewBox="0 0 165 175" fill="none" xmlns="http://www.w3.org/2000/svg">
<g filter="url(#filter0_d_4_1530)">
<path d="M11.3366 94.4662C14.6997 130.593 45.3319 159.212 80.816 162.192C98.366 163.666 118.254 158.293 131.015 145.778C148.396 128.734 155.256 107.501 155.703 83.5895C156.471 42.5234 119.38 0.658985 76.1921 11.4915C55.3102 16.7291 36.9025 32.271 24.4465 49.4779C18.2155 58.0856 13.5126 67.3956 10.7606 77.6974C8.48601 86.2118 9.31922 93.8935 10.9881 102.365" stroke="white" stroke-width="7.1861" stroke-linecap="round"/>
</g>
<g filter="url(#filter1_d_4_1530)">
<path d="M80.7884 103.07C78.8057 104.424 75.1689 98.1599 74.2537 96.8205C70.6912 91.6065 67.1611 84.3796 69.1273 77.8831C70.2196 74.2743 73.9469 70.0388 77.7467 72.9815C81.233 75.6815 83.3694 80.5134 85.364 84.3124" stroke="white" stroke-width="7.1861" stroke-linecap="round"/>
</g>
<g filter="url(#filter2_d_4_1530)">
<path d="M88.2796 84.2019C84.7999 85.9692 88.4314 80.6349 89.109 79.7141C90.8492 77.3489 93.533 75.1384 96.1774 73.9155C97.7542 73.1865 100.429 72.1939 101.921 73.6429C103.019 74.7093 102.814 77.1454 102.79 78.5091C102.734 81.5874 102.537 85.0847 101.519 88.0179C98.7561 95.9807 92.3552 100.894 84.9792 104.331" stroke="white" stroke-width="7.1861" stroke-linecap="round"/>
</g>
<g filter="url(#filter3_d_4_1530)">
<path d="M131.327 93.5773C132.195 94.6284 130.984 92.1386 130.826 91.8207C129.472 89.0932 128.434 86.5038 127.641 83.5418C126.116 77.8493 124.126 69.5768 128.03 64.3295C131.591 59.5429 136.105 65.4769 137.764 68.7717C139.459 72.1369 140.439 75.4803 141.155 79.1187" stroke="white" stroke-width="7.1861" stroke-linecap="round"/>
</g>
<g filter="url(#filter4_d_4_1530)">
<path d="M141.429 76.9777C140.779 73.6762 145.827 70.3275 148.261 69.04C149.071 68.6114 151.078 67.7547 152.024 68.2856C153.551 69.1423 153.801 70.9884 153.602 72.544C153.276 75.0923 151.873 77.5129 150.755 79.7826C149.393 82.5494 147.604 85.2419 145.728 87.6826C142.197 92.277 137.472 94.511 131.974 96.0779" stroke="white" stroke-width="7.1861" stroke-linecap="round"/>
</g>
<g filter="url(#filter5_d_4_1530)">
<path d="M101.11 120.912C103.311 127.434 107.765 133.501 115.611 132.652C123.207 131.83 125.33 126.593 126.188 119.884" stroke="white" stroke-width="7.1861" stroke-linecap="round"/>
</g>
<defs>
<filter id="filter0_d_4_1530" x="1.77655" y="6.16293" width="161.531" height="167.859" filterUnits="userSpaceOnUse" color-interpolation-filters="sRGB">
<feFlood flood-opacity="0" result="BackgroundImageFix"/>
<feColorMatrix in="SourceAlpha" type="matrix" values="0 0 0 0 0 0 0 0 0 0 0 0 0 0 0 0 0 0 127 0" result="hardAlpha"/>
<feOffset dy="4"/>
<feGaussianBlur stdDeviation="2"/>
<feComposite in2="hardAlpha" operator="out"/>
<feColorMatrix type="matrix" values="0 0 0 0 0 0 0 0 0 0 0 0 0 0 0 0 0 0 0.25 0"/>
<feBlend mode="normal" in2="BackgroundImageFix" result="effect1_dropShadow_4_1530"/>
<feBlend mode="normal" in="SourceGraphic" in2="effect1_dropShadow_4_1530" result="shape"/>
</filter>
<filter id="filter1_d_4_1530" x="60.9701" y="68.4017" width="31.9877" height="46.4602" filterUnits="userSpaceOnUse" color-interpolation-filters="sRGB">
<feFlood flood-opacity="0" result="BackgroundImageFix"/>
<feColorMatrix in="SourceAlpha" type="matrix" values="0 0 0 0 0 0 0 0 0 0 0 0 0 0 0 0 0 0 127 0" result="hardAlpha"/>
<feOffset dy="4"/>
<feGaussianBlur stdDeviation="2"/>
<feComposite in2="hardAlpha" operator="out"/>
<feColorMatrix type="matrix" values="0 0 0 0 0 0 0 0 0 0 0 0 0 0 0 0 0 0 0.25 0"/>
<feBlend mode="normal" in2="BackgroundImageFix" result="effect1_dropShadow_4_1530"/>
<feBlend mode="normal" in="SourceGraphic" in2="effect1_dropShadow_4_1530" result="shape"/>
</filter>
<filter id="filter2_d_4_1530" x="77.3853" y="69.309" width="33.0275" height="46.6162" filterUnits="userSpaceOnUse" color-interpolation-filters="sRGB">
<feFlood flood-opacity="0" result="BackgroundImageFix"/>
<feColorMatrix in="SourceAlpha" type="matrix" values="0 0 0 0 0 0 0 0 0 0 0 0 0 0 0 0 0 0 127 0" result="hardAlpha"/>
<feOffset dy="4"/>
<feGaussianBlur stdDeviation="2"/>
<feComposite in2="hardAlpha" operator="out"/>
<feColorMatrix type="matrix" values="0 0 0 0 0 0 0 0 0 0 0 0 0 0 0 0 0 0 0.25 0"/>
<feBlend mode="normal" in2="BackgroundImageFix" result="effect1_dropShadow_4_1530"/>
<feBlend mode="normal" in="SourceGraphic" in2="effect1_dropShadow_4_1530" result="shape"/>
</filter>
<filter id="filter3_d_4_1530" x="118.164" y="58.9406" width="30.5845" height="46.4869" filterUnits="userSpaceOnUse" color-interpolation-filters="sRGB">
<feFlood flood-opacity="0" result="BackgroundImageFix"/>
<feColorMatrix in="SourceAlpha" type="matrix" values="0 0 0 0 0 0 0 0 0 0 0 0 0 0 0 0 0 0 127 0" result="hardAlpha"/>
<feOffset dy="4"/>
<feGaussianBlur stdDeviation="2"/>
<feComposite in2="hardAlpha" operator="out"/>
<feColorMatrix type="matrix" values="0 0 0 0 0 0 0 0 0 0 0 0 0 0 0 0 0 0 0.25 0"/>
<feBlend mode="normal" in2="BackgroundImageFix" result="effect1_dropShadow_4_1530"/>
<feBlend mode="normal" in="SourceGraphic" in2="effect1_dropShadow_4_1530" result="shape"/>
</filter>
<filter id="filter4_d_4_1530" x="124.38" y="64.5242" width="36.869" height="43.1477" filterUnits="userSpaceOnUse" color-interpolation-filters="sRGB">
<feFlood flood-opacity="0" result="BackgroundImageFix"/>
<feColorMatrix in="SourceAlpha" type="matrix" values="0 0 0 0 0 0 0 0 0 0 0 0 0 0 0 0 0 0 127 0" result="hardAlpha"/>
<feOffset dy="4"/>
<feGaussianBlur stdDeviation="2"/>
<feComposite in2="hardAlpha" operator="out"/>
<feColorMatrix type="matrix" values="0 0 0 0 0 0 0 0 0 0 0 0 0 0 0 0 0 0 0.25 0"/>
<feBlend mode="normal" in2="BackgroundImageFix" result="effect1_dropShadow_4_1530"/>
<feBlend mode="normal" in="SourceGraphic" in2="effect1_dropShadow_4_1530" result="shape"/>
</filter>
<filter id="filter5_d_4_1530" x="93.5156" y="116.291" width="40.2657" height="28.0341" filterUnits="userSpaceOnUse" color-interpolation-filters="sRGB">
<feFlood flood-opacity="0" result="BackgroundImageFix"/>
<feColorMatrix in="SourceAlpha" type="matrix" values="0 0 0 0 0 0 0 0 0 0 0 0 0 0 0 0 0 0 127 0" result="hardAlpha"/>
<feOffset dy="4"/>
<feGaussianBlur stdDeviation="2"/>
<feComposite in2="hardAlpha" operator="out"/>
<feColorMatrix type="matrix" values="0 0 0 0 0 0 0 0 0 0 0 0 0 0 0 0 0 0 0.25 0"/>
<feBlend mode="normal" in2="BackgroundImageFix" result="effect1_dropShadow_4_1530"/>
<feBlend mode="normal" in="SourceGraphic" in2="effect1_dropShadow_4_1530" result="shape"/>
</filter>
</defs>
</svg>
